# xmcd
#
# Track frame offsets:
#	150
#	15333
#	33026
#	51657
#	72702
#	89108
#	103632
#	119753
#	135926
#	148991
#	170154
#	186827
#	201497
#	222475
#	228035
#	240041
#
# Disc length: 3385 seconds
#
# Revision: 0
# Processed by: cddbd v1.5.1PL2 Copyright (c) Steve Scherf et al.
# Submitted via: audiograbber 1.83.01
#
DISCID=f10d3710
DTITLE=mixalis xatzigiannis - live cd 1
DYEAR=2006
DGENRE=Ethnic
TTITLE0=o vithos sou
TTITLE1=oneiro zo
TTITLE2=kosmima ths lipis
TTITLE3=kaneis
TTITLE4=den exo xrono
TTITLE5=eisai edo
TTITLE6=pou einai h agapi
TTITLE7=xano ton elenxo
TTITLE8=akatallili skini
TTITLE9=an eisoun mazi mou
TTITLE10=mhn me oneireuteis
TTITLE11=to sa agapo
TTITLE12=xoris anapnoi
TTITLE13=thelo na afetho
TTITLE14=mono sta oneira
TTITLE15=gia esena
EXTD=
EXTT0=
EXTT1=
EXTT2=
EXTT3=
EXTT4=
EXTT5=
EXTT6=
EXTT7=
EXTT8=
EXTT9=
EXTT10=
EXTT11=
EXTT12=
EXTT13=
EXTT14=
EXTT15=
PLAYORDER=
